<?xml version="1.0" encoding="UTF-8"?>
<svg width="283px" height="178px" viewBox="0 0 283 178" version="1.1" xmlns="http://www.w3.org/2000/svg" xmlns:xlink="http://www.w3.org/1999/xlink">
    <!-- Generator: Sketch 52.1 (67048) - http://www.bohemiancoding.com/sketch -->
    <title>Artboard</title>
    <desc>Created with Sketch.</desc>
    <g id="Artboard" stroke="none" stroke-width="1" fill="none" fill-rule="evenodd">
        <g id="weather" fill="#F9F9F9">
            <polygon id="Path" points="0 0 283 0 283 178 0 178"></polygon>
        </g>
        <g id="Group-3" transform="translate(107.500000, 66.500000)"></g>
        <path d="M148.892887,50.897168 L146.902528,54.4270806 L142.922137,53.6232954 L145.668135,56.6088659 L143.675376,60.1507022 L147.364738,58.4646641 L150.110732,61.4502333 L149.648531,57.4126511 L153.325972,55.7242056 L149.357504,54.9228279 L148.892887,50.897168 Z M131.594705,51.9808558 L129.601941,55.5226907 L125.621549,54.7189056 L128.367553,57.7044694 L126.377194,61.2343895 L130.054637,59.5459521 L132.800635,62.5315133 L132.336021,58.5058471 L136.025389,56.8198158 L132.056912,56.018438 L131.594705,51.9808558 Z M164.415049,58.6084665 L162.42228,62.1503001 L158.441891,61.3465163 L161.187889,64.3320787 L159.197532,67.8619989 L162.886898,66.1759689 L165.632891,69.16153 L165.168277,65.1358625 L168.857642,63.4498325 L164.877253,62.6460474 L164.415049,58.6084665 Z M117.141914,61.5772471 L115.151558,65.1071686 L111.18309,64.3057909 L113.917168,67.2889419 L111.926805,70.8188648 L115.616169,69.1328348 L118.362172,72.1183986 L117.897554,68.0927257 L121.586921,66.4066997 L117.606528,65.6029146 L117.141914,61.5772471 Z M173.999518,73.0588471 L172.009163,76.5887687 L168.040689,75.7873896 L170.777179,78.7586272 L168.784414,82.3004662 L172.473771,80.6144348 L175.219776,83.5999973 L174.755159,79.5743258 L178.444519,77.8882984 L174.464129,77.0845133 L173.999518,73.0588471 Z M109.43062,77.099399 L107.440256,80.6293192 L103.471787,79.8279428 L106.205863,82.8111032 L104.21551,86.3410261 L107.916788,84.6573967 L110.650866,87.6405545 L110.186258,83.6148884 L113.875617,81.9288503 L109.895231,81.1250678 L109.43062,77.099399 Z M175.083212,90.3570251 L173.092856,93.8869467 L169.124383,93.0855675 L171.858463,96.0687307 L169.868104,99.5986509 L173.557465,97.9126141 L176.303465,100.898181 L175.836447,96.8844266 L179.528213,95.1864764 L175.547828,94.3826939 L175.083212,90.3570251 Z M110.514305,94.3975824 L108.523948,97.9275052 L104.555479,97.1261288 L107.289559,100.109281 L105.29679,103.651119 L108.986153,101.965089 L111.732157,104.950653 L111.269945,100.913064 L114.959311,99.2270377 L110.978918,98.4232538 L110.514305,94.3975824 Z M167.371908,105.879182 L165.381555,109.409107 L161.413078,108.607727 L164.147162,111.590881 L162.154396,115.13272 L165.843757,113.446689 L168.589761,116.432253 L168.127551,112.394665 L171.816908,110.708636 L167.836521,109.904853 L167.371908,105.879182 Z M120.113105,108.838457 L118.12034,112.380296 L114.139951,111.576511 L116.885954,114.562071 L114.895595,118.091988 L118.584952,116.405974 L121.319037,119.389113 L120.854423,115.363447 L124.543788,113.677421 L120.575314,112.876042 L120.113105,108.838457 Z M152.933451,115.466068 L150.94068,119.007904 L146.960291,118.20412 L149.708694,121.177771 L147.715932,124.719597 L151.405295,123.033582 L154.151292,126.01913 L153.689081,121.981554 L157.376042,120.307436 L153.395653,119.503651 L152.933451,115.466068 Z M135.635263,116.54976 L133.642496,120.091597 L129.662104,119.287813 L132.410509,122.261462 L130.41775,125.803302 L134.107108,124.117274 L136.853106,127.102832 L136.390905,123.065247 L140.065941,121.38872 L136.097471,120.587344 L135.635263,116.54976 Z" id="path3397" fill="#4A4A4A" fill-rule="nonzero"></path>
    </g>
</svg>