<svg width="283" height="178" viewBox="0 0 283 178" xmlns="http://www.w3.org/2000/svg"><title>Artboard</title><desc>Created with Sketch.</desc><g fill="none"><path fill="#4A4A4A" d="M0 0h283v178h-283z"/><path d="M118.2 60.2c5.2 1 8.8 4.6 10.7 9.4 2.8-1.7 6-2.6 9-2.7 6.2 0 9.5 2 12.2 7.2 3-3.7 7-6 12-6.5 3 0 6 1 8 3.3 3.3 4 5 9.6 5 17 0 10-3 22-7.4 28-.6 1-1.8 1.4-2.8 1.4-2 0-3.3-1.3-3.3-3 0-.7 0-1.4.6-1.8 3.8-5 6.4-15.4 6.4-24.4 0-8.4-2.6-14-7-14-2 0-4 1-6.4 3.2l-3.6 4c1 3.2 1 6.4 1 9.4 0 15-4.3 27-12 27-1.5 0-3-.4-4-1.4h-.2c-1.4-1.8-2-4-2-8 .2-10 4-20 10-28-.2-2-1.3-3.7-2.5-5.3-1.6-1.2-3.3-2-5.4-2-2.6 0-4.8 1.5-6.8 3 .7 4.5 1 8.8 1 13 0 16-5.8 29.4-14.3 29.4-5 0-8.4-4.5-8.4-11.4 1-12 5.8-24.7 14.6-33-1-3.7-3-6.7-6.2-7.5-1.2-.7-2-2-2-3.5-.2-2 1-3 3-3h.3l.5.2zm6.8 22c-5 7.2-9 15.8-9.3 25v1c0 .8.2 1.5.4 2.2 0 1 .3 2 1 2 4 0 8-11.2 8-23.3 0-4 0-1.3-.5-6.3h-.3l.7-.6zm22 8.2c-2.7 5.8-5.2 12-5.2 18.3v2.4l.2 1c1.4-1 2-3 2.8-4.4 1.4-4.8 1.7-9.7 2.2-14.7v-2.6z" fill="#fff" fill-rule="nonzero"/></g></svg>