<?xml version="1.0" encoding="UTF-8"?>
<svg width="283px" height="178px" viewBox="0 0 283 178" version="1.1" xmlns="http://www.w3.org/2000/svg" xmlns:xlink="http://www.w3.org/1999/xlink">
    <!-- Generator: Sketch 52.1 (67048) - http://www.bohemiancoding.com/sketch -->
    <title>Artboard</title>
    <desc>Created with Sketch.</desc>
    <g id="Artboard" stroke="none" stroke-width="1" fill="none" fill-rule="evenodd">
        <g id="weather" fill="#FAFAFA">
            <polygon id="Path" points="0 0 283 0 283 178 0 178"></polygon>
        </g>
        <g id="logo" transform="translate(84.000000, 45.000000)"></g>
        <g id="Group" transform="translate(103.500000, 56.500000)" fill="#999999" fill-rule="nonzero">
            <path d="M11.0920746,0.852819857 C14.3265499,0.81901907 17.5649253,0.785218283 20.8020007,0.871020281 C20.815001,4.10029547 20.8098008,7.32957066 20.8033007,10.5588458 C17.5662253,10.6108471 14.3278499,10.5900466 11.0920746,10.5679461 C11.0374733,7.33087069 11.0374733,4.09119526 11.0920746,0.852819857 Z M21.9512274,0.852819857 C25.1857027,0.815118979 28.4240781,0.789118374 31.6611535,0.86842022 C31.6767539,4.09899544 31.6728538,7.33087069 31.6624535,10.5614459 C28.4253782,10.608247 25.1870028,10.5952467 21.9512274,10.5692461 C21.9005262,7.33217072 21.8992262,4.09249529 21.9512274,0.854119887 L21.9512274,0.852819857 Z M43.6682331,0.854119887 C46.9144086,0.803418707 50.1605842,0.811218888 53.4054598,0.850219796 C53.4366605,4.09119526 53.4314604,7.33087069 53.4093599,10.5718462 C50.1618843,10.5939467 46.9131086,10.6017468 43.6682331,10.5679461 C43.622732,7.32957066 43.621432,4.09119526 43.6682331,0.854119887 Z M54.5286859,0.854119887 C57.7709614,0.803418707 61.0145369,0.811218888 64.2568124,0.848919766 C64.2880132,4.09119526 64.282813,7.33087069 64.2607125,10.5718462 C61.017137,10.5926466 57.7709614,10.6017468 54.5260859,10.5679461 C54.4831849,7.32957066 54.4831849,4.09119526 54.5273859,0.854119887 L54.5286859,0.854119887 Z M0.234221757,11.7132727 C3.47129713,11.6794719 6.70967253,11.6495712 9.94414784,11.7301731 C9.95194802,14.9555482 9.94934796,18.1822233 9.94544787,21.4075984 C6.7083725,21.4686999 3.4699971,21.4426993 0.234221757,21.4205988 C0.178320456,18.1861234 0.178320456,14.947748 0.234221757,11.7132727 Z M11.0920746,11.7132727 C14.3265499,11.6781719 17.5675253,11.6534713 20.8020007,11.7288731 C20.8137009,14.9555482 20.8111009,18.1835234 20.8033007,21.4101985 C17.5662253,21.4660998 14.3278499,21.4452993 11.0920746,21.4218988 C11.0374733,18.1874235 11.0374733,14.9490481 11.0920746,11.7145728 L11.0920746,11.7132727 Z M21.9512274,11.7145728 C25.1857027,11.6755719 28.4240781,11.6560714 31.6611535,11.726273 C31.6767539,14.9555482 31.6728538,18.1822233 31.6624535,21.4114985 C28.4253782,21.4621997 25.1870028,21.4491994 21.9512274,21.4205988 C21.9005262,18.1861234 21.8992262,14.9490481 21.9512274,11.7145728 Z M43.6682331,11.7145728 C46.9144086,11.6664716 50.1618843,11.6755719 53.4080598,11.7106727 C53.4366605,14.947748 53.4327604,18.1861234 53.4093599,21.4218988 C50.1618843,21.4478994 46.9131086,21.4556996 43.6682331,21.4179987 C43.622732,18.1835234 43.621432,14.9490481 43.6682331,11.7132727 L43.6682331,11.7145728 Z M54.5286859,11.7145728 C57.7709614,11.6664716 61.0145369,11.6755719 64.2594125,11.7093726 C64.2880132,14.947748 64.2841131,18.1861234 64.2607125,21.4231988 C61.017137,21.4491994 57.7709614,21.4569996 54.5260859,21.4192987 C54.4844849,18.1848234 54.4831849,14.9503481 54.5273859,11.7145728 L54.5286859,11.7145728 Z M65.3891388,11.7145728 C68.6301143,11.6664716 71.8697897,11.6755719 75.1081651,11.7106727 C75.1380658,14.947748 75.1341657,18.1861234 75.1120652,21.4218988 C71.8697897,21.4478994 68.6301143,21.4556996 65.3878388,21.4179987 C65.3488379,18.1835234 65.3449378,14.9490481 65.3891388,11.7132727 L65.3891388,11.7145728 Z M0.234221757,22.5711255 C3.47129713,22.5451249 6.70967253,22.5191243 9.94544787,22.5841258 C9.94934796,25.8095009 9.95064799,29.0361761 9.94544787,32.2615512 C6.7083725,32.3343529 3.4699971,32.3070522 0.234221757,32.2771515 C0.178320456,29.0426762 0.178320456,25.8056009 0.234221757,22.5711255 Z M11.0907745,22.5711255 C14.3291499,22.5412248 17.5675253,22.5204244 20.8046007,22.5828258 C20.8124009,25.8095009 20.8137009,29.0374761 20.8033007,32.2641512 C17.5688254,32.3317528 14.33045,32.3096523 11.0933746,32.2771515 C11.0387733,29.0426762 11.0387733,25.8056009 11.0920746,22.5711255 L11.0907745,22.5711255 Z M54.5260859,22.5737256 C57.7696614,22.5321246 61.015837,22.5399248 64.2581125,22.5698255 C64.2841131,25.8069009 64.2867131,29.0426762 64.2581125,32.2797516 C61.0145369,32.3135524 57.7696614,32.3213526 54.5273859,32.2745515 C54.4818848,29.0413762 54.4818848,25.8069009 54.5260859,22.5737256 Z M65.3891388,22.5737256 C68.6301143,22.5321246 71.8697897,22.5399248 75.1120652,22.5698255 C75.1367658,25.8069009 75.1380658,29.0426762 75.1107652,32.2797516 C71.8697897,32.3135524 68.6301143,32.3213526 65.3891388,32.2758515 C65.3436377,29.0413762 65.3462378,25.8069009 65.3891388,22.5737256 Z M11.0907745,33.4263783 C14.3291499,33.4016777 17.5675253,33.3834773 20.8046007,33.4354785 C20.8098008,36.6647537 20.8137009,39.8914288 20.8033007,43.119404 C17.5688254,43.2013059 14.3278499,43.1714052 11.0933746,43.1363044 C11.0387733,39.899229 11.0387733,36.6608536 11.0920746,33.4263783 L11.0907745,33.4263783 Z M21.9486273,33.4263783 C25.1870028,33.4003777 28.4240781,33.3873774 31.6624535,33.4341785 C31.6715537,36.6634537 31.6754538,39.8927289 31.6611535,43.1233041 C28.4240781,43.1987058 25.1857027,43.1740053 21.9512274,43.1363044 C21.8992262,39.899229 21.9005262,36.6608536 21.9499274,33.4263783 L21.9486273,33.4263783 Z M43.6682331,33.4263783 C46.9144086,33.3925775 50.1618843,33.4003777 53.4093599,33.4224782 C53.4314604,36.6608536 53.4379605,39.9018291 53.4054598,43.1402045 C50.1592842,43.1753053 46.9131086,43.1857055 43.6682331,43.1350043 C43.622732,39.900529 43.622732,36.6634537 43.6682331,33.4276783 L43.6682331,33.4263783 Z M54.5260859,33.4289784 C57.7696614,33.3938775 61.015837,33.4003777 64.2607125,33.4237782 C64.282813,36.6621536 64.2893132,39.9031291 64.2568124,43.1415045 C61.0145369,43.1766053 57.7709614,43.1883056 54.5286859,43.1363044 C54.4831849,39.9018291 54.4857849,36.6647537 54.5273859,33.4302784 L54.5260859,33.4289784 Z M21.9486273,44.277731 C25.1870028,44.2517303 28.4253782,44.23873 31.6624535,44.2855311 C31.6715537,47.5161064 31.6780539,50.7492816 31.6585534,53.9824569 C28.4240781,54.0643588 25.1857027,54.0331581 21.9512274,53.9993573 C21.8992262,50.7583818 21.9005262,47.5174064 21.9499274,44.277731 L21.9486273,44.277731 Z M32.8090802,44.277731 C36.0591559,44.2465302 39.3079315,44.2517303 42.5580072,44.2738309 C42.5801077,47.5161064 42.5866079,50.7583818 42.5541071,54.0006573 C39.3066315,54.0396582 36.0565558,54.0435583 32.8090802,53.9967572 C32.7609791,50.7583818 32.7609791,47.5161064 32.8090802,44.277731 Z M43.6682331,44.277731 C46.9144086,44.2439302 50.1618843,44.2517303 53.4093599,44.2738309 C53.4314604,47.5161064 53.4379605,50.7583818 53.4054598,53.9980573 C50.1592842,54.0396582 46.9131086,54.0448584 43.6682331,53.9967572 C43.621432,50.7583818 43.622732,47.5161064 43.6682331,44.277731 Z M32.8090802,55.1290836 C36.0591559,55.0952828 39.3079315,55.103083 42.5580072,55.1251835 C42.5801077,58.368759 42.5879079,61.6149346 42.5541071,64.8611102 C39.3066315,64.9040112 36.0565558,64.9040112 32.8090802,64.8598102 C32.7609791,61.6175347 32.7622791,58.3739592 32.8090802,55.1290836 Z" id="Combined-Shape"></path>
            <path d="M21.934327,22.5659254 C25.1779025,22.5438249 28.4240781,22.5360247 31.6689537,22.5698255 C31.6702537,25.8069009 31.6728538,29.0413762 31.6676536,32.2758515 C28.4253782,32.3187525 25.1792026,32.3070522 21.935627,32.2836517 C21.9109265,29.0452763 21.9109265,25.8043008 21.935627,22.5659254 L21.934327,22.5659254 Z M32.7947799,22.5659254 C36.0513557,22.5373248 39.3092316,22.5451249 42.5658074,22.5620253 C42.5749076,25.8043008 42.5775077,29.0465763 42.5645074,32.2862517 C39.3079315,32.3031521 36.0526557,32.3148524 32.7947799,32.2810516 C32.7726794,29.0426762 32.7726794,25.8043008 32.7947799,22.5659254 Z M43.6565328,22.5659254 C46.9079085,22.5373248 50.1618843,22.5451249 53.41456,22.5620253 C53.4262603,25.8043008 53.4275603,29.0439763 53.41456,32.2862517 C50.1605842,32.3031521 46.9079085,32.3148524 43.6565328,32.2810516 C43.6344323,29.0426762 43.6344323,25.8043008 43.6565328,22.5659254 Z M32.7960799,11.7080726 C36.0513557,11.6742718 39.3066315,11.6859721 42.5619073,11.7028725 C42.5788077,14.945148 42.5736076,18.1887235 42.5658074,21.430999 C39.3092316,21.4426993 36.0513557,21.4491994 32.7947799,21.4270989 C32.7726794,18.1887235 32.7700793,14.947748 32.7960799,11.7080726 Z M32.7947799,33.4185781 C36.0513557,33.4003777 39.3092316,33.4068778 42.5658074,33.414678 C42.5736076,36.6582535 42.5814078,39.9044291 42.5619073,43.1493047 C39.3066315,43.1662051 36.0513557,43.1753053 32.7960799,43.1441046 C32.7700793,39.9031291 32.7713793,36.6621536 32.7947799,33.4198781 L32.7947799,33.4185781 Z" id="Combined-Shape"></path>
        </g>
    </g>
</svg>