<svg width="283" height="178" viewBox="0 0 283 178" xmlns="http://www.w3.org/2000/svg"><title>Artboard</title><desc>Created with Sketch.</desc><g fill="none"><g><path d="M161.871 88.903c-.681-.896-1.444-1.859-2.291-2.889-.847-1.029-1.98-2.216-3.399-3.561-1.419-1.345-2.582-2.312-3.486-2.901-.905-.589-1.756-.884-2.552-.884-.199 0-.423.037-.672.112-.249.075-.486.212-.71.411-.224.199-.411.477-.56.834-.149.357-.224.818-.224 1.382 0 1.129.158 2.229.473 3.3.315 1.071.913 2.37 1.793 3.897.88 1.527 1.473 2.847 1.781 3.959.307 1.112.461 2.274.461 3.486 0 .664-.1 1.195-.299 1.594-.199.398-.457.598-.772.598-.398 0-.822-.083-1.27-.249-.448-.166-.896-.382-1.345-.647-.448-.266-.888-.569-1.32-.909-.432-.34-.838-.693-1.22-1.058-.913-.847-1.81-1.81-2.689-2.889l-.423 6.624 1.133.872c.457.349.963.718 1.519 1.108.556.39 1.158.784 1.805 1.183.647.398 1.299.751 1.955 1.058.656.307 1.312.56 1.967.76.656.199 1.282.299 1.88.299.913 0 1.706-.245 2.378-.735.672-.49 1.224-1.112 1.656-1.868.432-.755.755-1.581.971-2.478.216-.896.324-1.743.324-2.54 0-.531-.071-1.125-.212-1.781-.141-.656-.315-1.316-.523-1.98-.208-.664-.44-1.312-.697-1.942-.257-.631-.498-1.195-.722-1.693-.224-.498-.419-.905-.585-1.22-.166-.315-.274-.498-.324-.548l.523-.075c.282.183.76.647 1.432 1.395.672.747 1.432 1.689 2.279 2.826s1.722 2.416 2.627 3.835c.905 1.419 1.722 2.885 2.453 4.395.365.747.664 1.399.896 1.955.232.556.461 1.013.685 1.37.224.357.469.627.735.809.266.183.606.274 1.021.274.548 0 .979-.158 1.295-.473.315-.315.556-.735.722-1.258.166-.523.274-1.116.324-1.781.05-.664.075-1.345.075-2.042 0-1.112-.012-2.569-.037-4.37-.025-1.801-.104-3.798-.237-5.989s-.324-4.499-.573-6.923c-.249-2.424-.602-4.819-1.058-7.184-.457-2.366-1.029-4.624-1.718-6.773-.689-2.15-1.527-4.042-2.515-5.678-.988-1.635-2.146-2.934-3.474-3.897-1.328-.963-2.855-1.444-4.582-1.444-.896 0-1.631.133-2.204.398-.573.266-1.029.639-1.37 1.121-.34.481-.577 1.058-.71 1.731-.133.672-.199 1.424-.199 2.254 0 1.229.174 2.59.523 4.084.349 1.494.809 3.046 1.382 4.657.573 1.61 1.224 3.241 1.955 4.893.73 1.652 1.478 3.254 2.241 4.806.764 1.552 1.515 3.017 2.254 4.395.739 1.378 1.39 2.59 1.955 3.636l-.498.349zM135.226 104.392c1.561 0 2.926-.282 4.096-.847 1.17-.564 2.146-1.324 2.926-2.279.78-.955 1.365-2.059 1.756-3.312.39-1.253.585-2.569.585-3.947 0-.93-.174-2.038-.523-3.324-.349-1.287-.71-2.428-1.083-3.424-.374-.996-.843-1.947-1.407-2.851-.564-.905-1.224-1.702-1.98-2.391-.755-.689-1.602-1.237-2.54-1.644-.938-.407-1.98-.61-3.125-.61-.93 0-1.793.149-2.59.448-.797.299-1.49.718-2.079 1.258-.589.54-1.05 1.191-1.382 1.955-.332.764-.498 1.619-.498 2.565 0 1.029.336 2.183 1.009 3.461.672 1.278 1.457 2.374 2.353 3.287.896.913 1.963 1.727 3.2 2.44 1.237.714 2.577 1.27 4.022 1.668-.249.448-.494.822-.735 1.121-.241.299-.486.531-.735.697-.249.166-.51.282-.784.349-.274.066-.569.1-.884.1-.996 0-2.046-.199-3.15-.598-1.104-.398-2.179-.896-3.225-1.494-1.046-.598-2.034-1.249-2.963-1.955-.93-.706-1.718-1.374-2.366-2.005l-3.212 3.337c1.461 1.511 3.013 2.847 4.657 4.009.714.498 1.482.988 2.303 1.469.822.481 1.685.909 2.59 1.282.905.374 1.843.672 2.814.896.971.224 1.955.336 2.951.336zM93.215 104.367c.481 0 .967-.071 1.457-.212.49-.141.979-.332 1.469-.573.49-.241.979-.515 1.469-.822.49-.307.975-.635 1.457-.984.963.73 1.984 1.324 3.063 1.781 1.079.457 2.225.726 3.437.809.863 0 1.668-.154 2.416-.461.747-.307 1.399-.714 1.955-1.22s.992-1.092 1.307-1.756c.315-.664.473-1.345.473-2.042 0-.548-.091-1.108-.274-1.681-.183-.573-.469-1.096-.859-1.569-.39-.473-.888-.859-1.494-1.158-.606-.299-1.341-.448-2.204-.448-1.312 0-2.469.191-3.474.573-1.004.382-1.93.838-2.777 1.37-.498-.598-.967-1.241-1.407-1.93-.44-.689-.826-1.399-1.158-2.129-.332-.73-.594-1.465-.784-2.204-.191-.739-.286-1.465-.286-2.179 0-1.212.116-2.204.349-2.976.232-.772.535-1.374.909-1.805.374-.432.784-.726 1.233-.884.448-.158.888-.237 1.32-.237.531 0 1.033.091 1.507.274.473.183.896.436 1.27.76s.668.71.884 1.158c.216.448.324.946.324 1.494 0 .299-.237.606-.71.921-.473.315-1.233.639-2.279.971l-.05.249c0 .199.191.411.573.635.382.224.859.432 1.432.623s1.199.349 1.88.473c.681.125 1.32.187 1.917.187.133-.133.261-.208.386-.224l.336-.025c.697-.564 1.204-1.175 1.519-1.83.315-.656.473-1.332.473-2.03 0-.93-.261-1.938-.784-3.026-.523-1.087-1.237-1.996-2.142-2.727-.905-.73-1.967-1.32-3.188-1.768-1.22-.448-2.519-.672-3.897-.672-.365 0-.851.037-1.457.112-.606.075-1.262.228-1.967.461-.706.232-1.419.552-2.142.959-.722.407-1.378.942-1.967 1.606-.589.664-1.071 1.561-1.444 2.689-.374 1.129-.56 2.349-.56 3.661 0 .73.12 1.59.361 2.577.241.988.589 2.034 1.046 3.138.457 1.104 1.021 2.229 1.693 3.374.672 1.146 1.432 2.225 2.279 3.237-.564.282-1.15.51-1.756.685-.606.174-1.274.261-2.005.261-.183 0-.386-.129-.61-.386-.224-.257-.436-.544-.635-.859-.199-.315-.386-.602-.56-.859-.174-.257-.303-.386-.386-.386-.232 0-.419.091-.56.274-.141.183-.212.506-.212.971 0 .714.133 1.602.398 2.665.083.332.199.681.349 1.046.149.365.357.701.623 1.009.266.307.602.56 1.009.76.407.199.892.299 1.457.299zM120.085 83.225c.249.266.519.535.809.809.291.274.573.523.847.747.274.224.527.407.76.548.232.141.407.212.523.212 1.561 0 2.756-.137 3.586-.411.83-.274 1.245-.552 1.245-.834 0-.183-.174-.332-.523-.448-.349-.116-.888-.174-1.619-.174-.183 0-.457-.137-.822-.411-.365-.274-.801-.618-1.307-1.033-.506-.415-1.067-.863-1.681-1.345-.614-.481-1.245-.93-1.893-1.345-.647-.415-1.303-.76-1.967-1.033-.664-.274-1.312-.411-1.942-.411-.896 0-1.494.062-1.793.187-.299.125-.448.303-.448.535 0 .249.033.556.1.921.066.365.1.797.1 1.295l.149.896c.083.598.199 1.378.349 2.341l.51 3.275c.191 1.22.378 2.457.56 3.71.183 1.253.357 2.474.523 3.661.166 1.187.307 2.22.423 3.1.05.199.112.498.187.896s.178.834.311 1.307.295.955.486 1.444c.191.49.419.938.685 1.345.266.407.577.739.934.996.357.257.76.386 1.208.386.548 0 1.062-.033 1.544-.1.481-.066.896-.17 1.245-.311.349-.141.623-.324.822-.548.199-.224.299-.494.299-.809l-.025-.398c-.017-.133-.083-.299-.199-.498-.266-.963-.527-1.963-.784-3.001-.257-1.038-.506-2.079-.747-3.125-.241-1.046-.469-2.079-.685-3.1-.216-1.021-.415-1.988-.598-2.901-.432-2.142-.822-4.267-1.17-6.375zM168.52 98.814c1.594.93 3.013 1.743 4.258 2.44 1.245.697 2.353 1.278 3.324 1.743.971.465 1.834.813 2.59 1.046.755.232 1.44.349 2.054.349 1.262 0 2.374-.382 3.337-1.146.963-.764 1.768-1.864 2.416-3.3.647-1.436 1.133-3.175 1.457-5.217.324-2.042.486-4.341.486-6.898 0-.996-.042-2.059-.125-3.188-.083-1.129-.199-2.25-.349-3.362.498-.066.884-.129 1.158-.187l.872-.174c.307-.058.697-.12 1.17-.187.473-.066 1.158-.149 2.054-.249.398-.05.706-.145.921-.286.216-.141.374-.307.473-.498.1-.191.158-.39.174-.598.017-.208.025-.386.025-.535 0-.332-.162-.585-.486-.76-.324-.174-.739-.303-1.245-.386-.506-.083-1.062-.129-1.668-.137-.606-.008-1.187-.004-1.743.012-.556.017-1.054.029-1.494.037-.44.008-.743-.004-.909-.037-.448-2.241-1.017-4.412-1.706-6.512-.689-2.1-1.461-3.968-2.316-5.603-.855-1.635-1.789-2.947-2.802-3.935-1.013-.988-2.075-1.482-3.187-1.482-.714 0-1.365.199-1.955.598-.589.398-1.092.93-1.507 1.594-.415.664-.735 1.44-.959 2.328-.224.888-.336 1.814-.336 2.777 0 .813.116 1.673.349 2.577.232.905.548 1.826.946 2.764.398.938.867 1.888 1.407 2.851.54.963 1.108 1.917 1.706 2.864-.149.017-.398.025-.747.025s-.751.012-1.208.037l-1.482.075c-.531.025-1.046.046-1.544.062l-1.395.05-1.071.05c-.332.017-.573.183-.722.498-.149.315-.224.714-.224 1.195 0 .581.166 1.054.498 1.419.332.365.697.548 1.096.548h9.563c.481.664.967 1.316 1.457 1.955.49.639.942 1.216 1.357 1.731.066 1.029.125 2.042.174 3.038l.05 1.332.05 1.357c.017.448.029.88.037 1.295.008.415.012.797.012 1.146 0 .896-.083 1.652-.249 2.266-.166.614-.407 1.116-.722 1.507-.315.39-.701.672-1.158.847-.457.174-.967.261-1.531.261-.349 0-.784-.083-1.307-.249-.523-.166-1.096-.394-1.718-.685-.623-.291-1.278-.635-1.967-1.033-.689-.398-1.37-.834-2.042-1.307-.672-.473-1.316-.971-1.93-1.494-.614-.523-1.17-1.058-1.668-1.606v6.375z" id="Path" fill="#4A4A4A"/><path d="M105.891 99.636c-.697 0-1.536-.349-2.515-1.046.398-.249.776-.448 1.133-.598.357-.149.677-.224.959-.224.747 0 1.274.066 1.581.199.307.133.461.299.461.498 0 .149-.046.291-.137.423-.091.133-.212.257-.361.374-.149.116-.324.208-.523.274-.199.066-.398.1-.598.1zM138.538 92.688c-.598 0-1.249-.154-1.955-.461-.706-.307-1.361-.701-1.967-1.183-.606-.481-1.199-1.129-1.781-1.942-.581-.813-.872-1.486-.872-2.017 0-.747.137-1.361.411-1.843.274-.481.61-.722 1.009-.722.714 0 1.324.133 1.83.398.506.266.93.61 1.27 1.033.34.423.614.905.822 1.444.208.54.448 1.208.722 2.005.274.797.427 1.453.461 1.967.033.515.05.955.05 1.32zM159.655 73.513c-.979-2.54-1.689-4.682-2.129-6.425-.44-1.743-.66-3.03-.66-3.86 0-1.262.166-1.893.498-1.893.432 0 1.071.706 1.917 2.117.847 1.411 1.843 3.461 2.988 6.151.282.913.544 1.859.784 2.839.241.979.457 1.955.647 2.926.191.971.365 1.926.523 2.864.158.938.295 1.83.411 2.677.282 1.976.498 3.91.647 5.802-.448-1.046-.938-2.183-1.469-3.412-.531-1.229-1.054-2.445-1.569-3.648l-1.457-3.412c-.457-1.071-.834-1.98-1.133-2.727zM176.489 67.288c0-.183.012-.386.037-.61.025-.224.079-.436.162-.635s.212-.365.386-.498c.174-.133.419-.199.735-.199.432 0 .867.382 1.307 1.146.44.764.863 1.739 1.27 2.926.407 1.187.789 2.494 1.146 3.922.357 1.428.685 2.814.984 4.159l-.747.087-.772.087c-.498-.847-1.017-1.764-1.556-2.752-.54-.988-1.025-1.959-1.457-2.914-.432-.955-.789-1.847-1.071-2.677-.282-.83-.423-1.511-.423-2.042z" fill="#fff"/></g></g></svg>